<?xml version="1.0" encoding="UTF-8" standalone="no"?>
<!DOCTYPE svg PUBLIC "-//W3C//DTD SVG 1.1//EN"
 "http://www.w3.org/Graphics/SVG/1.1/DTD/svg11.dtd">
<!-- Generated by graphviz version 2.40.1 (20161225.0304)
 -->
<!-- Title: dependencies Pages: 1 -->
<svg width="2113pt" height="284pt"
 viewBox="0.00 0.00 2113.00 284.00" xmlns="http://www.w3.org/2000/svg" xmlns:xlink="http://www.w3.org/1999/xlink">
<g id="graph0" class="graph" transform="scale(1 1) rotate(0) translate(4 280)">
<title>dependencies</title>
<polygon fill="#ffffff" stroke="transparent" points="-4,4 -4,-280 2109,-280 2109,4 -4,4"/>
<text text-anchor="start" x="1031.5091" y="-42.4" font-family="sans-serif" font-weight="bold" font-size="14.00" fill="#000000">Legend</text>
<polygon fill="#ffffb3" stroke="transparent" points="818.5,-10 818.5,-30 838.5,-30 838.5,-10 818.5,-10"/>
<text text-anchor="start" x="842.129" y="-15.4" font-family="sans-serif" font-size="14.00" fill="#000000"> &#160;Declarations</text>
<polygon fill="#8dd3c7" stroke="transparent" points="931.5,-10 931.5,-30 951.5,-30 951.5,-10 931.5,-10"/>
<text text-anchor="start" x="955.2251" y="-15.4" font-family="sans-serif" font-size="14.00" fill="#000000"> &#160;Module</text>
<polygon fill="#80b1d3" stroke="transparent" points="1017.5,-10 1017.5,-30 1037.5,-30 1037.5,-10 1017.5,-10"/>
<text text-anchor="start" x="1041.2812" y="-15.4" font-family="sans-serif" font-size="14.00" fill="#000000"> &#160;Bootstrap</text>
<polygon fill="#fdb462" stroke="transparent" points="1114.5,-10 1114.5,-30 1134.5,-30 1134.5,-10 1114.5,-10"/>
<text text-anchor="start" x="1138.1732" y="-15.4" font-family="sans-serif" font-size="14.00" fill="#000000"> &#160;Providers</text>
<polygon fill="#fb8072" stroke="transparent" points="1210.5,-10 1210.5,-30 1230.5,-30 1230.5,-10 1210.5,-10"/>
<text text-anchor="start" x="1234.2258" y="-15.4" font-family="sans-serif" font-size="14.00" fill="#000000"> &#160;Exports</text>
<g id="clust1" class="cluster">
<title>cluster_AppModule</title>
<polygon fill="none" stroke="#000000" stroke-dasharray="1,5" points="8,-70 8,-268 2097,-268 2097,-70 8,-70"/>
</g>
<g id="clust2" class="cluster">
<title>cluster_AppModule_declarations</title>
<polygon fill="none" stroke="#000000" points="537,-78 537,-130 2089,-130 2089,-78 537,-78"/>
</g>
<g id="clust13" class="cluster">
<title>cluster_AppModule_imports</title>
<polygon fill="none" stroke="#000000" points="16,-78 16,-130 529,-130 529,-78 16,-78"/>
</g>
<g id="clust15" class="cluster">
<title>cluster_AppModule_bootstrap</title>
<polygon fill="none" stroke="#000000" points="985,-208 985,-260 1109,-260 1109,-208 985,-208"/>
</g>
<!-- AppComponent -->
<g id="node1" class="node">
<title>AppComponent</title>
<polygon fill="#ffffb3" stroke="#000000" points="2080.9399,-122 1975.0601,-122 1975.0601,-86 2080.9399,-86 2080.9399,-122"/>
<text text-anchor="middle" x="2028" y="-99.8" font-family="Times,serif" font-size="14.00" fill="#000000">AppComponent</text>
</g>
<!-- AppModule -->
<g id="node11" class="node">
<title>AppModule</title>
<polygon fill="#8dd3c7" stroke="#000000" points="1088.6571,-187 1085.6571,-191 1064.6571,-191 1061.6571,-187 1005.3429,-187 1005.3429,-151 1088.6571,-151 1088.6571,-187"/>
<text text-anchor="middle" x="1047" y="-164.8" font-family="Times,serif" font-size="14.00" fill="#000000">AppModule</text>
</g>
<!-- AppComponent&#45;&gt;AppModule -->
<g id="edge1" class="edge">
<title>AppComponent&#45;&gt;AppModule</title>
<path fill="none" stroke="#000000" d="M2028,-122.0908C2028,-145.1328 2028,-182 2028,-182 2028,-182 1098.8385,-182 1098.8385,-182"/>
<polygon fill="#000000" stroke="#000000" points="1098.8386,-178.5001 1088.8385,-182 1098.8385,-185.5001 1098.8386,-178.5001"/>
</g>
<!-- PagenotfoundComponent -->
<g id="node2" class="node">
<title>PagenotfoundComponent</title>
<polygon fill="#ffffb3" stroke="#000000" points="1957.5954,-122 1798.4046,-122 1798.4046,-86 1957.5954,-86 1957.5954,-122"/>
<text text-anchor="middle" x="1878" y="-99.8" font-family="Times,serif" font-size="14.00" fill="#000000">PagenotfoundComponent</text>
</g>
<!-- PagenotfoundComponent&#45;&gt;AppModule -->
<g id="edge2" class="edge">
<title>PagenotfoundComponent&#45;&gt;AppModule</title>
<path fill="none" stroke="#000000" d="M1878,-122.0449C1878,-143.6623 1878,-177 1878,-177 1878,-177 1098.7789,-177 1098.7789,-177"/>
<polygon fill="#000000" stroke="#000000" points="1098.7789,-173.5001 1088.7789,-177 1098.7789,-180.5001 1098.7789,-173.5001"/>
</g>
<!-- HeaderComponent -->
<g id="node3" class="node">
<title>HeaderComponent</title>
<polygon fill="#ffffb3" stroke="#000000" points="1780.7437,-122 1659.2563,-122 1659.2563,-86 1780.7437,-86 1780.7437,-122"/>
<text text-anchor="middle" x="1720" y="-99.8" font-family="Times,serif" font-size="14.00" fill="#000000">HeaderComponent</text>
</g>
<!-- HeaderComponent&#45;&gt;AppModule -->
<g id="edge3" class="edge">
<title>HeaderComponent&#45;&gt;AppModule</title>
<path fill="none" stroke="#000000" d="M1720,-122.2228C1720,-142.3652 1720,-172 1720,-172 1720,-172 1098.8449,-172 1098.8449,-172"/>
<polygon fill="#000000" stroke="#000000" points="1098.8449,-168.5001 1088.8449,-172 1098.8449,-175.5001 1098.8449,-168.5001"/>
</g>
<!-- HomeComponent -->
<g id="node4" class="node">
<title>HomeComponent</title>
<polygon fill="#ffffb3" stroke="#000000" points="1640.5451,-122 1525.4549,-122 1525.4549,-86 1640.5451,-86 1640.5451,-122"/>
<text text-anchor="middle" x="1583" y="-99.8" font-family="Times,serif" font-size="14.00" fill="#000000">HomeComponent</text>
</g>
<!-- HomeComponent&#45;&gt;AppModule -->
<g id="edge4" class="edge">
<title>HomeComponent&#45;&gt;AppModule</title>
<path fill="none" stroke="#000000" d="M1583,-122.2222C1583,-140.8285 1583,-167 1583,-167 1583,-167 1099.059,-167 1099.059,-167"/>
<polygon fill="#000000" stroke="#000000" points="1099.0591,-163.5001 1089.059,-167 1099.059,-170.5001 1099.0591,-163.5001"/>
</g>
<!-- SidenavComponent -->
<g id="node5" class="node">
<title>SidenavComponent</title>
<polygon fill="#ffffb3" stroke="#000000" points="1507.4356,-122 1380.5644,-122 1380.5644,-86 1507.4356,-86 1507.4356,-122"/>
<text text-anchor="middle" x="1444" y="-99.8" font-family="Times,serif" font-size="14.00" fill="#000000">SidenavComponent</text>
</g>
<!-- SidenavComponent&#45;&gt;AppModule -->
<g id="edge5" class="edge">
<title>SidenavComponent&#45;&gt;AppModule</title>
<path fill="none" stroke="#000000" d="M1444,-122.0336C1444,-139.0597 1444,-162 1444,-162 1444,-162 1098.7356,-162 1098.7356,-162"/>
<polygon fill="#000000" stroke="#000000" points="1098.7356,-158.5001 1088.7356,-162 1098.7356,-165.5001 1098.7356,-158.5001"/>
</g>
<!-- GalleryComponent -->
<g id="node6" class="node">
<title>GalleryComponent</title>
<polygon fill="#ffffb3" stroke="#000000" points="1362.8104,-122 1239.1896,-122 1239.1896,-86 1362.8104,-86 1362.8104,-122"/>
<text text-anchor="middle" x="1301" y="-99.8" font-family="Times,serif" font-size="14.00" fill="#000000">GalleryComponent</text>
</g>
<!-- GalleryComponent&#45;&gt;AppModule -->
<g id="edge6" class="edge">
<title>GalleryComponent&#45;&gt;AppModule</title>
<path fill="none" stroke="#000000" d="M1301,-122.2396C1301,-137.5706 1301,-157 1301,-157 1301,-157 1098.6585,-157 1098.6585,-157"/>
<polygon fill="#000000" stroke="#000000" points="1098.6585,-153.5001 1088.6585,-157 1098.6585,-160.5001 1098.6585,-153.5001"/>
</g>
<!-- CrystalsystemsComponent -->
<g id="node7" class="node">
<title>CrystalsystemsComponent</title>
<polygon fill="#ffffb3" stroke="#000000" points="1221.0996,-122 1054.9004,-122 1054.9004,-86 1221.0996,-86 1221.0996,-122"/>
<text text-anchor="middle" x="1138" y="-99.8" font-family="Times,serif" font-size="14.00" fill="#000000">CrystalsystemsComponent</text>
</g>
<!-- CrystalsystemsComponent&#45;&gt;AppModule -->
<g id="edge7" class="edge">
<title>CrystalsystemsComponent&#45;&gt;AppModule</title>
<path fill="none" stroke="#000000" d="M1071.8892,-122.1061C1071.8892,-122.1061 1071.8892,-140.991 1071.8892,-140.991"/>
<polygon fill="#000000" stroke="#000000" points="1068.3893,-140.9909 1071.8892,-150.991 1075.3893,-140.991 1068.3893,-140.9909"/>
</g>
<!-- ProfileDetailsComponent -->
<g id="node8" class="node">
<title>ProfileDetailsComponent</title>
<polygon fill="#ffffb3" stroke="#000000" points="1036.5842,-122 877.4158,-122 877.4158,-86 1036.5842,-86 1036.5842,-122"/>
<text text-anchor="middle" x="957" y="-99.8" font-family="Times,serif" font-size="14.00" fill="#000000">ProfileDetailsComponent</text>
</g>
<!-- ProfileDetailsComponent&#45;&gt;AppModule -->
<g id="edge8" class="edge">
<title>ProfileDetailsComponent&#45;&gt;AppModule</title>
<path fill="none" stroke="#000000" d="M1020.857,-122.1061C1020.857,-122.1061 1020.857,-140.991 1020.857,-140.991"/>
<polygon fill="#000000" stroke="#000000" points="1017.357,-140.9909 1020.857,-150.991 1024.357,-140.991 1017.357,-140.9909"/>
</g>
<!-- ProfileList1Component -->
<g id="node9" class="node">
<title>ProfileList1Component</title>
<polygon fill="#ffffb3" stroke="#000000" points="859.2105,-122 710.7895,-122 710.7895,-86 859.2105,-86 859.2105,-122"/>
<text text-anchor="middle" x="785" y="-99.8" font-family="Times,serif" font-size="14.00" fill="#000000">ProfileList1Component</text>
</g>
<!-- ProfileList1Component&#45;&gt;AppModule -->
<g id="edge9" class="edge">
<title>ProfileList1Component&#45;&gt;AppModule</title>
<path fill="none" stroke="#000000" d="M785,-122.2396C785,-137.5706 785,-157 785,-157 785,-157 995.1956,-157 995.1956,-157"/>
<polygon fill="#000000" stroke="#000000" points="995.1956,-160.5001 1005.1956,-157 995.1956,-153.5001 995.1956,-160.5001"/>
</g>
<!-- ProfileList2Component -->
<g id="node10" class="node">
<title>ProfileList2Component</title>
<polygon fill="#ffffb3" stroke="#000000" points="693.2105,-122 544.7895,-122 544.7895,-86 693.2105,-86 693.2105,-122"/>
<text text-anchor="middle" x="619" y="-99.8" font-family="Times,serif" font-size="14.00" fill="#000000">ProfileList2Component</text>
</g>
<!-- ProfileList2Component&#45;&gt;AppModule -->
<g id="edge10" class="edge">
<title>ProfileList2Component&#45;&gt;AppModule</title>
<path fill="none" stroke="#000000" d="M619,-122.0336C619,-139.0597 619,-162 619,-162 619,-162 995.1823,-162 995.1823,-162"/>
<polygon fill="#000000" stroke="#000000" points="995.1823,-165.5001 1005.1823,-162 995.1822,-158.5001 995.1823,-165.5001"/>
</g>
<!-- AppComponent  -->
<g id="node16" class="node">
<title>AppComponent </title>
<polygon fill="#80b1d3" stroke="#000000" points="1101.439,-252 992.561,-252 992.561,-216 1101.439,-216 1101.439,-252"/>
<text text-anchor="middle" x="1047" y="-229.8" font-family="Times,serif" font-size="14.00" fill="#000000">AppComponent </text>
</g>
<!-- AppModule&#45;&gt;AppComponent  -->
<g id="edge15" class="edge">
<title>AppModule&#45;&gt;AppComponent </title>
<path fill="none" stroke="#000000" stroke-dasharray="1,5" d="M1047,-187.1061C1047,-187.1061 1047,-205.991 1047,-205.991"/>
<polygon fill="#000000" stroke="#000000" points="1043.5001,-205.9909 1047,-215.991 1050.5001,-205.991 1043.5001,-205.9909"/>
</g>
<!-- BrowserModule -->
<g id="node12" class="node">
<title>BrowserModule</title>
<polygon fill="#8dd3c7" stroke="#000000" points="521.4734,-122 518.4734,-126 497.4734,-126 494.4734,-122 414.5266,-122 414.5266,-86 521.4734,-86 521.4734,-122"/>
<text text-anchor="middle" x="468" y="-99.8" font-family="Times,serif" font-size="14.00" fill="#000000">BrowserModule</text>
</g>
<!-- BrowserModule&#45;&gt;AppModule -->
<g id="edge11" class="edge">
<title>BrowserModule&#45;&gt;AppModule</title>
<path fill="none" stroke="#000000" d="M468,-122.2222C468,-140.8285 468,-167 468,-167 468,-167 994.8934,-167 994.8934,-167"/>
<polygon fill="#000000" stroke="#000000" points="994.8934,-170.5001 1004.8934,-167 994.8933,-163.5001 994.8934,-170.5001"/>
</g>
<!-- RoutingModule -->
<g id="node13" class="node">
<title>RoutingModule</title>
<polygon fill="#8dd3c7" stroke="#000000" points="396.1681,-122 393.1681,-126 372.1681,-126 369.1681,-122 291.8319,-122 291.8319,-86 396.1681,-86 396.1681,-122"/>
<text text-anchor="middle" x="344" y="-99.8" font-family="Times,serif" font-size="14.00" fill="#000000">RoutingModule</text>
</g>
<!-- RoutingModule&#45;&gt;AppModule -->
<g id="edge12" class="edge">
<title>RoutingModule&#45;&gt;AppModule</title>
<path fill="none" stroke="#000000" d="M344,-122.2228C344,-142.3652 344,-172 344,-172 344,-172 995.1294,-172 995.1294,-172"/>
<polygon fill="#000000" stroke="#000000" points="995.1295,-175.5001 1005.1294,-172 995.1294,-168.5001 995.1295,-175.5001"/>
</g>
<!-- MaterialModule -->
<g id="node14" class="node">
<title>MaterialModule</title>
<polygon fill="#8dd3c7" stroke="#000000" points="273.4706,-122 270.4706,-126 249.4706,-126 246.4706,-122 166.5294,-122 166.5294,-86 273.4706,-86 273.4706,-122"/>
<text text-anchor="middle" x="220" y="-99.8" font-family="Times,serif" font-size="14.00" fill="#000000">MaterialModule</text>
</g>
<!-- MaterialModule&#45;&gt;AppModule -->
<g id="edge13" class="edge">
<title>MaterialModule&#45;&gt;AppModule</title>
<path fill="none" stroke="#000000" d="M220,-122.0449C220,-143.6623 220,-177 220,-177 220,-177 995.1375,-177 995.1375,-177"/>
<polygon fill="#000000" stroke="#000000" points="995.1376,-180.5001 1005.1375,-177 995.1375,-173.5001 995.1376,-180.5001"/>
</g>
<!-- FlexLayoutModule -->
<g id="node15" class="node">
<title>FlexLayoutModule</title>
<polygon fill="#8dd3c7" stroke="#000000" points="148.0954,-122 145.0954,-126 124.0954,-126 121.0954,-122 23.9046,-122 23.9046,-86 148.0954,-86 148.0954,-122"/>
<text text-anchor="middle" x="86" y="-99.8" font-family="Times,serif" font-size="14.00" fill="#000000">FlexLayoutModule</text>
</g>
<!-- FlexLayoutModule&#45;&gt;AppModule -->
<g id="edge14" class="edge">
<title>FlexLayoutModule&#45;&gt;AppModule</title>
<path fill="none" stroke="#000000" d="M86,-122.0908C86,-145.1328 86,-182 86,-182 86,-182 995.0891,-182 995.0891,-182"/>
<polygon fill="#000000" stroke="#000000" points="995.0891,-185.5001 1005.0891,-182 995.0891,-178.5001 995.0891,-185.5001"/>
</g>
</g>
</svg>
