<?xml version="1.0" encoding="UTF-8" standalone="no"?>
<!DOCTYPE svg PUBLIC "-//W3C//DTD SVG 1.1//EN"
 "http://www.w3.org/Graphics/SVG/1.1/DTD/svg11.dtd">
<!-- Generated by graphviz version 2.40.1 (20161225.0304)
 -->
<!-- Title: dependencies Pages: 1 -->
<svg width="2657pt" height="284pt"
 viewBox="0.00 0.00 2657.00 284.00" xmlns="http://www.w3.org/2000/svg" xmlns:xlink="http://www.w3.org/1999/xlink">
<g id="graph0" class="graph" transform="scale(1 1) rotate(0) translate(4 280)">
<title>dependencies</title>
<polygon fill="#ffffff" stroke="transparent" points="-4,4 -4,-280 2653,-280 2653,4 -4,4"/>
<text text-anchor="start" x="1303.5091" y="-42.4" font-family="sans-serif" font-weight="bold" font-size="14.00" fill="#000000">Legend</text>
<polygon fill="#ffffb3" stroke="transparent" points="1090.5,-10 1090.5,-30 1110.5,-30 1110.5,-10 1090.5,-10"/>
<text text-anchor="start" x="1114.129" y="-15.4" font-family="sans-serif" font-size="14.00" fill="#000000"> &#160;Declarations</text>
<polygon fill="#8dd3c7" stroke="transparent" points="1203.5,-10 1203.5,-30 1223.5,-30 1223.5,-10 1203.5,-10"/>
<text text-anchor="start" x="1227.2251" y="-15.4" font-family="sans-serif" font-size="14.00" fill="#000000"> &#160;Module</text>
<polygon fill="#80b1d3" stroke="transparent" points="1289.5,-10 1289.5,-30 1309.5,-30 1309.5,-10 1289.5,-10"/>
<text text-anchor="start" x="1313.2812" y="-15.4" font-family="sans-serif" font-size="14.00" fill="#000000"> &#160;Bootstrap</text>
<polygon fill="#fdb462" stroke="transparent" points="1386.5,-10 1386.5,-30 1406.5,-30 1406.5,-10 1386.5,-10"/>
<text text-anchor="start" x="1410.1732" y="-15.4" font-family="sans-serif" font-size="14.00" fill="#000000"> &#160;Providers</text>
<polygon fill="#fb8072" stroke="transparent" points="1482.5,-10 1482.5,-30 1502.5,-30 1502.5,-10 1482.5,-10"/>
<text text-anchor="start" x="1506.2258" y="-15.4" font-family="sans-serif" font-size="14.00" fill="#000000"> &#160;Exports</text>
<g id="clust1" class="cluster">
<title>cluster_AppModule</title>
<polygon fill="none" stroke="#000000" stroke-dasharray="1,5" points="8,-70 8,-268 2641,-268 2641,-70 8,-70"/>
</g>
<g id="clust2" class="cluster">
<title>cluster_AppModule_declarations</title>
<polygon fill="none" stroke="#000000" points="2213,-78 2213,-130 2633,-130 2633,-78 2213,-78"/>
</g>
<g id="clust7" class="cluster">
<title>cluster_AppModule_imports</title>
<polygon fill="none" stroke="#000000" points="648,-78 648,-130 2205,-130 2205,-78 648,-78"/>
</g>
<g id="clust9" class="cluster">
<title>cluster_AppModule_bootstrap</title>
<polygon fill="none" stroke="#000000" points="1321,-208 1321,-260 1409,-260 1409,-208 1321,-208"/>
</g>
<g id="clust10" class="cluster">
<title>cluster_AppModule_providers</title>
<polygon fill="none" stroke="#000000" points="16,-78 16,-130 640,-130 640,-78 16,-78"/>
</g>
<!-- MyApp -->
<g id="node1" class="node">
<title>MyApp</title>
<polygon fill="#ffffb3" stroke="#000000" points="2624.5529,-122 2565.4471,-122 2565.4471,-86 2624.5529,-86 2624.5529,-122"/>
<text text-anchor="middle" x="2595" y="-99.8" font-family="Times,serif" font-size="14.00" fill="#000000">MyApp</text>
</g>
<!-- AppModule -->
<g id="node5" class="node">
<title>AppModule</title>
<polygon fill="#8dd3c7" stroke="#000000" points="1406.6571,-187 1403.6571,-191 1382.6571,-191 1379.6571,-187 1323.3429,-187 1323.3429,-151 1406.6571,-151 1406.6571,-187"/>
<text text-anchor="middle" x="1365" y="-164.8" font-family="Times,serif" font-size="14.00" fill="#000000">AppModule</text>
</g>
<!-- MyApp&#45;&gt;AppModule -->
<g id="edge1" class="edge">
<title>MyApp&#45;&gt;AppModule</title>
<path fill="none" stroke="#000000" d="M2595,-122.3228C2595,-145.6602 2595,-183 2595,-183 2595,-183 1416.9836,-183 1416.9836,-183"/>
<polygon fill="#000000" stroke="#000000" points="1416.9836,-179.5001 1406.9836,-183 1416.9835,-186.5001 1416.9836,-179.5001"/>
</g>
<!-- HomePage -->
<g id="node2" class="node">
<title>HomePage</title>
<polygon fill="#ffffb3" stroke="#000000" points="2547.9248,-122 2470.0752,-122 2470.0752,-86 2547.9248,-86 2547.9248,-122"/>
<text text-anchor="middle" x="2509" y="-99.8" font-family="Times,serif" font-size="14.00" fill="#000000">HomePage</text>
</g>
<!-- HomePage&#45;&gt;AppModule -->
<g id="edge2" class="edge">
<title>HomePage&#45;&gt;AppModule</title>
<path fill="none" stroke="#000000" d="M2509,-122.1554C2509,-144.3519 2509,-179 2509,-179 2509,-179 1416.7312,-179 1416.7312,-179"/>
<polygon fill="#000000" stroke="#000000" points="1416.7313,-175.5001 1406.7312,-179 1416.7312,-182.5001 1416.7313,-175.5001"/>
</g>
<!-- ProfileDetailsPage -->
<g id="node3" class="node">
<title>ProfileDetailsPage</title>
<polygon fill="#ffffb3" stroke="#000000" points="2452.4636,-122 2331.5364,-122 2331.5364,-86 2452.4636,-86 2452.4636,-122"/>
<text text-anchor="middle" x="2392" y="-99.8" font-family="Times,serif" font-size="14.00" fill="#000000">ProfileDetailsPage</text>
</g>
<!-- ProfileDetailsPage&#45;&gt;AppModule -->
<g id="edge3" class="edge">
<title>ProfileDetailsPage&#45;&gt;AppModule</title>
<path fill="none" stroke="#000000" d="M2392,-122.2843C2392,-143.3211 2392,-175 2392,-175 2392,-175 1416.8524,-175 1416.8524,-175"/>
<polygon fill="#000000" stroke="#000000" points="1416.8524,-171.5001 1406.8524,-175 1416.8523,-178.5001 1416.8524,-171.5001"/>
</g>
<!-- GlossaryPage -->
<g id="node4" class="node">
<title>GlossaryPage</title>
<polygon fill="#ffffb3" stroke="#000000" points="2313.4734,-122 2220.5266,-122 2220.5266,-86 2313.4734,-86 2313.4734,-122"/>
<text text-anchor="middle" x="2267" y="-99.8" font-family="Times,serif" font-size="14.00" fill="#000000">GlossaryPage</text>
</g>
<!-- GlossaryPage&#45;&gt;AppModule -->
<g id="edge4" class="edge">
<title>GlossaryPage&#45;&gt;AppModule</title>
<path fill="none" stroke="#000000" d="M2267,-122.308C2267,-142.1455 2267,-171 2267,-171 2267,-171 1416.6963,-171 1416.6963,-171"/>
<polygon fill="#000000" stroke="#000000" points="1416.6963,-167.5001 1406.6963,-171 1416.6963,-174.5001 1416.6963,-167.5001"/>
</g>
<!-- IonicApp  -->
<g id="node16" class="node">
<title>IonicApp </title>
<polygon fill="#80b1d3" stroke="#000000" points="1401.3734,-252 1328.6266,-252 1328.6266,-216 1401.3734,-216 1401.3734,-252"/>
<text text-anchor="middle" x="1365" y="-229.8" font-family="Times,serif" font-size="14.00" fill="#000000">IonicApp </text>
</g>
<!-- AppModule&#45;&gt;IonicApp  -->
<g id="edge15" class="edge">
<title>AppModule&#45;&gt;IonicApp </title>
<path fill="none" stroke="#000000" stroke-dasharray="1,5" d="M1365,-187.1061C1365,-187.1061 1365,-205.991 1365,-205.991"/>
<polygon fill="#000000" stroke="#000000" points="1361.5001,-205.9909 1365,-215.991 1368.5001,-205.991 1361.5001,-205.9909"/>
</g>
<!-- CrystalsystemsPageModule -->
<g id="node6" class="node">
<title>CrystalsystemsPageModule</title>
<polygon fill="#8dd3c7" stroke="#000000" points="2196.5294,-122 2193.5294,-126 2172.5294,-126 2169.5294,-122 2025.4706,-122 2025.4706,-86 2196.5294,-86 2196.5294,-122"/>
<text text-anchor="middle" x="2111" y="-99.8" font-family="Times,serif" font-size="14.00" fill="#000000">CrystalsystemsPageModule</text>
</g>
<!-- CrystalsystemsPageModule&#45;&gt;AppModule -->
<g id="edge5" class="edge">
<title>CrystalsystemsPageModule&#45;&gt;AppModule</title>
<path fill="none" stroke="#000000" d="M2111,-122.2222C2111,-140.8285 2111,-167 2111,-167 2111,-167 1416.7067,-167 1416.7067,-167"/>
<polygon fill="#000000" stroke="#000000" points="1416.7067,-163.5001 1406.7067,-167 1416.7067,-170.5001 1416.7067,-163.5001"/>
</g>
<!-- GalleryPageModule -->
<g id="node7" class="node">
<title>GalleryPageModule</title>
<polygon fill="#8dd3c7" stroke="#000000" points="2007.2395,-122 2004.2395,-126 1983.2395,-126 1980.2395,-122 1878.7605,-122 1878.7605,-86 2007.2395,-86 2007.2395,-122"/>
<text text-anchor="middle" x="1943" y="-99.8" font-family="Times,serif" font-size="14.00" fill="#000000">GalleryPageModule</text>
</g>
<!-- GalleryPageModule&#45;&gt;AppModule -->
<g id="edge6" class="edge">
<title>GalleryPageModule&#45;&gt;AppModule</title>
<path fill="none" stroke="#000000" d="M1943,-122.0225C1943,-139.3734 1943,-163 1943,-163 1943,-163 1417.0339,-163 1417.0339,-163"/>
<polygon fill="#000000" stroke="#000000" points="1417.034,-159.5001 1407.0339,-163 1417.0339,-166.5001 1417.034,-159.5001"/>
</g>
<!-- GlossaryPopoverPageModule -->
<g id="node8" class="node">
<title>GlossaryPopoverPageModule</title>
<polygon fill="#8dd3c7" stroke="#000000" points="1860.6811,-122 1857.6811,-126 1836.6811,-126 1833.6811,-122 1677.3189,-122 1677.3189,-86 1860.6811,-86 1860.6811,-122"/>
<text text-anchor="middle" x="1769" y="-99.8" font-family="Times,serif" font-size="14.00" fill="#000000">GlossaryPopoverPageModule</text>
</g>
<!-- GlossaryPopoverPageModule&#45;&gt;AppModule -->
<g id="edge7" class="edge">
<title>GlossaryPopoverPageModule&#45;&gt;AppModule</title>
<path fill="none" stroke="#000000" d="M1769,-122.0091C1769,-138.0494 1769,-159 1769,-159 1769,-159 1416.7134,-159 1416.7134,-159"/>
<polygon fill="#000000" stroke="#000000" points="1416.7135,-155.5001 1406.7134,-159 1416.7134,-162.5001 1416.7135,-155.5001"/>
</g>
<!-- FeedbackPageModule -->
<g id="node9" class="node">
<title>FeedbackPageModule</title>
<polygon fill="#8dd3c7" stroke="#000000" points="1659.4032,-122 1656.4032,-126 1635.4032,-126 1632.4032,-122 1518.5968,-122 1518.5968,-86 1659.4032,-86 1659.4032,-122"/>
<text text-anchor="middle" x="1589" y="-99.8" font-family="Times,serif" font-size="14.00" fill="#000000">FeedbackPageModule</text>
</g>
<!-- FeedbackPageModule&#45;&gt;AppModule -->
<g id="edge8" class="edge">
<title>FeedbackPageModule&#45;&gt;AppModule</title>
<path fill="none" stroke="#000000" d="M1589,-122.1243C1589,-136.7832 1589,-155 1589,-155 1589,-155 1416.8699,-155 1416.8699,-155"/>
<polygon fill="#000000" stroke="#000000" points="1416.87,-151.5001 1406.8699,-155 1416.8699,-158.5001 1416.87,-151.5001"/>
</g>
<!-- HelperPageModule -->
<g id="node10" class="node">
<title>HelperPageModule</title>
<polygon fill="#8dd3c7" stroke="#000000" points="1500.3487,-122 1497.3487,-126 1476.3487,-126 1473.3487,-122 1375.6513,-122 1375.6513,-86 1500.3487,-86 1500.3487,-122"/>
<text text-anchor="middle" x="1438" y="-99.8" font-family="Times,serif" font-size="14.00" fill="#000000">HelperPageModule</text>
</g>
<!-- HelperPageModule&#45;&gt;AppModule -->
<g id="edge9" class="edge">
<title>HelperPageModule&#45;&gt;AppModule</title>
<path fill="none" stroke="#000000" d="M1391.202,-122.1061C1391.202,-122.1061 1391.202,-140.991 1391.202,-140.991"/>
<polygon fill="#000000" stroke="#000000" points="1387.702,-140.9909 1391.202,-150.991 1394.702,-140.991 1387.702,-140.9909"/>
</g>
<!-- ProfilesPageModule -->
<g id="node11" class="node">
<title>ProfilesPageModule</title>
<polygon fill="#8dd3c7" stroke="#000000" points="1357.3062,-122 1354.3062,-126 1333.3062,-126 1330.3062,-122 1226.6938,-122 1226.6938,-86 1357.3062,-86 1357.3062,-122"/>
<text text-anchor="middle" x="1292" y="-99.8" font-family="Times,serif" font-size="14.00" fill="#000000">ProfilesPageModule</text>
</g>
<!-- ProfilesPageModule&#45;&gt;AppModule -->
<g id="edge10" class="edge">
<title>ProfilesPageModule&#45;&gt;AppModule</title>
<path fill="none" stroke="#000000" d="M1340.1624,-122.1061C1340.1624,-122.1061 1340.1624,-140.991 1340.1624,-140.991"/>
<polygon fill="#000000" stroke="#000000" points="1336.6624,-140.9909 1340.1624,-150.991 1343.6624,-140.991 1336.6624,-140.9909"/>
</g>
<!-- Profiles1PageModule -->
<g id="node12" class="node">
<title>Profiles1PageModule</title>
<polygon fill="#8dd3c7" stroke="#000000" points="1208.8061,-122 1205.8061,-126 1184.8061,-126 1181.8061,-122 1071.1939,-122 1071.1939,-86 1208.8061,-86 1208.8061,-122"/>
<text text-anchor="middle" x="1140" y="-99.8" font-family="Times,serif" font-size="14.00" fill="#000000">Profiles1PageModule</text>
</g>
<!-- Profiles1PageModule&#45;&gt;AppModule -->
<g id="edge11" class="edge">
<title>Profiles1PageModule&#45;&gt;AppModule</title>
<path fill="none" stroke="#000000" d="M1140,-122.1243C1140,-136.7832 1140,-155 1140,-155 1140,-155 1313.2065,-155 1313.2065,-155"/>
<polygon fill="#000000" stroke="#000000" points="1313.2066,-158.5001 1323.2065,-155 1313.2065,-151.5001 1313.2066,-158.5001"/>
</g>
<!-- Profiles2PageModule -->
<g id="node13" class="node">
<title>Profiles2PageModule</title>
<polygon fill="#8dd3c7" stroke="#000000" points="1053.8061,-122 1050.8061,-126 1029.8061,-126 1026.8061,-122 916.1939,-122 916.1939,-86 1053.8061,-86 1053.8061,-122"/>
<text text-anchor="middle" x="985" y="-99.8" font-family="Times,serif" font-size="14.00" fill="#000000">Profiles2PageModule</text>
</g>
<!-- Profiles2PageModule&#45;&gt;AppModule -->
<g id="edge12" class="edge">
<title>Profiles2PageModule&#45;&gt;AppModule</title>
<path fill="none" stroke="#000000" d="M985,-122.0091C985,-138.0494 985,-159 985,-159 985,-159 1313.2463,-159 1313.2463,-159"/>
<polygon fill="#000000" stroke="#000000" points="1313.2464,-162.5001 1323.2463,-159 1313.2463,-155.5001 1313.2464,-162.5001"/>
</g>
<!-- QuizPageModule -->
<g id="node14" class="node">
<title>QuizPageModule</title>
<polygon fill="#8dd3c7" stroke="#000000" points="897.9734,-122 894.9734,-126 873.9734,-126 870.9734,-122 784.0266,-122 784.0266,-86 897.9734,-86 897.9734,-122"/>
<text text-anchor="middle" x="841" y="-99.8" font-family="Times,serif" font-size="14.00" fill="#000000">QuizPageModule</text>
</g>
<!-- QuizPageModule&#45;&gt;AppModule -->
<g id="edge13" class="edge">
<title>QuizPageModule&#45;&gt;AppModule</title>
<path fill="none" stroke="#000000" d="M841,-122.0225C841,-139.3734 841,-163 841,-163 841,-163 1313.0047,-163 1313.0047,-163"/>
<polygon fill="#000000" stroke="#000000" points="1313.0047,-166.5001 1323.0047,-163 1313.0046,-159.5001 1313.0047,-166.5001"/>
</g>
<!-- InfoPageModule -->
<g id="node15" class="node">
<title>InfoPageModule</title>
<polygon fill="#8dd3c7" stroke="#000000" points="766.0828,-122 763.0828,-126 742.0828,-126 739.0828,-122 655.9172,-122 655.9172,-86 766.0828,-86 766.0828,-122"/>
<text text-anchor="middle" x="711" y="-99.8" font-family="Times,serif" font-size="14.00" fill="#000000">InfoPageModule</text>
</g>
<!-- InfoPageModule&#45;&gt;AppModule -->
<g id="edge14" class="edge">
<title>InfoPageModule&#45;&gt;AppModule</title>
<path fill="none" stroke="#000000" d="M711,-122.2222C711,-140.8285 711,-167 711,-167 711,-167 1313.0945,-167 1313.0945,-167"/>
<polygon fill="#000000" stroke="#000000" points="1313.0945,-170.5001 1323.0945,-167 1313.0944,-163.5001 1313.0945,-170.5001"/>
</g>
<!-- ProfilesService -->
<g id="node17" class="node">
<title>ProfilesService</title>
<ellipse fill="#fdb462" stroke="#000000" cx="562" cy="-104" rx="70.0558" ry="18"/>
<text text-anchor="middle" x="562" y="-99.8" font-family="Times,serif" font-size="14.00" fill="#000000">ProfilesService</text>
</g>
<!-- ProfilesService&#45;&gt;AppModule -->
<g id="edge16" class="edge">
<title>ProfilesService&#45;&gt;AppModule</title>
<path fill="none" stroke="#000000" d="M562,-122.308C562,-142.1455 562,-171 562,-171 562,-171 1313.2384,-171 1313.2384,-171"/>
<polygon fill="#000000" stroke="#000000" points="1313.2384,-174.5001 1323.2384,-171 1313.2384,-167.5001 1313.2384,-174.5001"/>
</g>
<!-- HelpersService -->
<g id="node18" class="node">
<title>HelpersService</title>
<ellipse fill="#fdb462" stroke="#000000" cx="404" cy="-104" rx="70.0384" ry="18"/>
<text text-anchor="middle" x="404" y="-99.8" font-family="Times,serif" font-size="14.00" fill="#000000">HelpersService</text>
</g>
<!-- HelpersService&#45;&gt;AppModule -->
<g id="edge17" class="edge">
<title>HelpersService&#45;&gt;AppModule</title>
<path fill="none" stroke="#000000" d="M404,-122.2843C404,-143.3211 404,-175 404,-175 404,-175 1313.0891,-175 1313.0891,-175"/>
<polygon fill="#000000" stroke="#000000" points="1313.0891,-178.5001 1323.0891,-175 1313.0891,-171.5001 1313.0891,-178.5001"/>
</g>
<!-- GlossaryService -->
<g id="node19" class="node">
<title>GlossaryService</title>
<ellipse fill="#fdb462" stroke="#000000" cx="242" cy="-104" rx="74.1335" ry="18"/>
<text text-anchor="middle" x="242" y="-99.8" font-family="Times,serif" font-size="14.00" fill="#000000">GlossaryService</text>
</g>
<!-- GlossaryService&#45;&gt;AppModule -->
<g id="edge18" class="edge">
<title>GlossaryService&#45;&gt;AppModule</title>
<path fill="none" stroke="#000000" d="M242,-122.1554C242,-144.3519 242,-179 242,-179 242,-179 1313.0266,-179 1313.0266,-179"/>
<polygon fill="#000000" stroke="#000000" points="1313.0267,-182.5001 1323.0266,-179 1313.0266,-175.5001 1313.0267,-182.5001"/>
</g>
<!-- MenuService -->
<g id="node20" class="node">
<title>MenuService</title>
<ellipse fill="#fdb462" stroke="#000000" cx="87" cy="-104" rx="62.5392" ry="18"/>
<text text-anchor="middle" x="87" y="-99.8" font-family="Times,serif" font-size="14.00" fill="#000000">MenuService</text>
</g>
<!-- MenuService&#45;&gt;AppModule -->
<g id="edge19" class="edge">
<title>MenuService&#45;&gt;AppModule</title>
<path fill="none" stroke="#000000" d="M87,-122.3228C87,-145.6602 87,-183 87,-183 87,-183 1313.2052,-183 1313.2052,-183"/>
<polygon fill="#000000" stroke="#000000" points="1313.2053,-186.5001 1323.2052,-183 1313.2052,-179.5001 1313.2053,-186.5001"/>
</g>
</g>
</svg>
