<?xml version="1.0" encoding="UTF-8" standalone="no"?>
<!DOCTYPE svg PUBLIC "-//W3C//DTD SVG 1.1//EN"
 "http://www.w3.org/Graphics/SVG/1.1/DTD/svg11.dtd">
<!-- Generated by graphviz version 2.40.1 (20161225.0304)
 -->
<!-- Title: dependencies Pages: 1 -->
<svg width="2656pt" height="360pt"
 viewBox="0.00 0.00 2656.00 360.00" xmlns="http://www.w3.org/2000/svg" xmlns:xlink="http://www.w3.org/1999/xlink">
<g id="graph0" class="graph" transform="scale(1 1) rotate(0) translate(4 356)">
<title>dependencies</title>
<polygon fill="#ffffff" stroke="transparent" points="-4,4 -4,-356 2652,-356 2652,4 -4,4"/>
<text text-anchor="start" x="1303.0091" y="-42.4" font-family="sans-serif" font-weight="bold" font-size="14.00" fill="#000000">Legend</text>
<polygon fill="#ffffb3" stroke="transparent" points="1090,-10 1090,-30 1110,-30 1110,-10 1090,-10"/>
<text text-anchor="start" x="1113.629" y="-15.4" font-family="sans-serif" font-size="14.00" fill="#000000"> &#160;Declarations</text>
<polygon fill="#8dd3c7" stroke="transparent" points="1203,-10 1203,-30 1223,-30 1223,-10 1203,-10"/>
<text text-anchor="start" x="1226.7251" y="-15.4" font-family="sans-serif" font-size="14.00" fill="#000000"> &#160;Module</text>
<polygon fill="#80b1d3" stroke="transparent" points="1289,-10 1289,-30 1309,-30 1309,-10 1289,-10"/>
<text text-anchor="start" x="1312.7812" y="-15.4" font-family="sans-serif" font-size="14.00" fill="#000000"> &#160;Bootstrap</text>
<polygon fill="#fdb462" stroke="transparent" points="1386,-10 1386,-30 1406,-30 1406,-10 1386,-10"/>
<text text-anchor="start" x="1409.6732" y="-15.4" font-family="sans-serif" font-size="14.00" fill="#000000"> &#160;Providers</text>
<polygon fill="#fb8072" stroke="transparent" points="1482,-10 1482,-30 1502,-30 1502,-10 1482,-10"/>
<text text-anchor="start" x="1505.7258" y="-15.4" font-family="sans-serif" font-size="14.00" fill="#000000"> &#160;Exports</text>
<g id="clust1" class="cluster">
<title>cluster_AppModule</title>
<polygon fill="none" stroke="#000000" stroke-dasharray="1,5" points="8,-146 8,-344 2640,-344 2640,-146 8,-146"/>
</g>
<g id="clust2" class="cluster">
<title>cluster_AppModule_declarations</title>
<polygon fill="none" stroke="#000000" points="2212,-154 2212,-206 2632,-206 2632,-154 2212,-154"/>
</g>
<g id="clust7" class="cluster">
<title>cluster_AppModule_imports</title>
<polygon fill="none" stroke="#000000" points="648,-154 648,-206 2204,-206 2204,-154 648,-154"/>
</g>
<g id="clust9" class="cluster">
<title>cluster_AppModule_bootstrap</title>
<polygon fill="none" stroke="#000000" points="1438,-284 1438,-336 1526,-336 1526,-284 1438,-284"/>
</g>
<g id="clust10" class="cluster">
<title>cluster_AppModule_providers</title>
<polygon fill="none" stroke="#000000" points="16,-154 16,-206 640,-206 640,-154 16,-154"/>
</g>
<g id="clust11" class="cluster">
<title>cluster_CrystalsystemsPageModule</title>
<polygon fill="none" stroke="#000000" stroke-dasharray="1,5" points="662,-70 662,-138 822,-138 822,-70 662,-70"/>
</g>
<g id="clust12" class="cluster">
<title>cluster_CrystalsystemsPageModule_declarations</title>
<polygon fill="none" stroke="#000000" points="670,-78 670,-130 814,-130 814,-78 670,-78"/>
</g>
<g id="clust18" class="cluster">
<title>cluster_FeedbackPageModule</title>
<polygon fill="none" stroke="#000000" stroke-dasharray="1,5" points="852,-70 852,-138 980,-138 980,-70 852,-70"/>
</g>
<g id="clust19" class="cluster">
<title>cluster_FeedbackPageModule_declarations</title>
<polygon fill="none" stroke="#000000" points="860,-78 860,-130 972,-130 972,-78 860,-78"/>
</g>
<g id="clust25" class="cluster">
<title>cluster_GalleryPageModule</title>
<polygon fill="none" stroke="#000000" stroke-dasharray="1,5" points="1010,-70 1010,-138 1128,-138 1128,-70 1010,-70"/>
</g>
<g id="clust26" class="cluster">
<title>cluster_GalleryPageModule_declarations</title>
<polygon fill="none" stroke="#000000" points="1018,-78 1018,-130 1120,-130 1120,-78 1018,-78"/>
</g>
<g id="clust32" class="cluster">
<title>cluster_GlossaryPopoverPageModule</title>
<polygon fill="none" stroke="#000000" stroke-dasharray="1,5" points="1157,-70 1157,-138 1329,-138 1329,-70 1157,-70"/>
</g>
<g id="clust33" class="cluster">
<title>cluster_GlossaryPopoverPageModule_declarations</title>
<polygon fill="none" stroke="#000000" points="1165,-78 1165,-130 1321,-130 1321,-78 1165,-78"/>
</g>
<g id="clust39" class="cluster">
<title>cluster_HelperPageModule</title>
<polygon fill="none" stroke="#000000" stroke-dasharray="1,5" points="1358,-70 1358,-138 1472,-138 1472,-70 1358,-70"/>
</g>
<g id="clust40" class="cluster">
<title>cluster_HelperPageModule_declarations</title>
<polygon fill="none" stroke="#000000" points="1366,-78 1366,-130 1464,-130 1464,-78 1366,-78"/>
</g>
<g id="clust46" class="cluster">
<title>cluster_InfoPageModule</title>
<polygon fill="none" stroke="#000000" stroke-dasharray="1,5" points="1501,-70 1501,-138 1599,-138 1599,-70 1501,-70"/>
</g>
<g id="clust47" class="cluster">
<title>cluster_InfoPageModule_declarations</title>
<polygon fill="none" stroke="#000000" points="1509,-78 1509,-130 1591,-130 1591,-78 1509,-78"/>
</g>
<g id="clust53" class="cluster">
<title>cluster_Profiles1PageModule</title>
<polygon fill="none" stroke="#000000" stroke-dasharray="1,5" points="1629,-70 1629,-138 1755,-138 1755,-70 1629,-70"/>
</g>
<g id="clust54" class="cluster">
<title>cluster_Profiles1PageModule_declarations</title>
<polygon fill="none" stroke="#000000" points="1637,-78 1637,-130 1747,-130 1747,-78 1637,-78"/>
</g>
<g id="clust60" class="cluster">
<title>cluster_Profiles2PageModule</title>
<polygon fill="none" stroke="#000000" stroke-dasharray="1,5" points="1784,-70 1784,-138 1910,-138 1910,-70 1784,-70"/>
</g>
<g id="clust61" class="cluster">
<title>cluster_Profiles2PageModule_declarations</title>
<polygon fill="none" stroke="#000000" points="1792,-78 1792,-130 1902,-130 1902,-78 1792,-78"/>
</g>
<g id="clust67" class="cluster">
<title>cluster_ProfilesPageModule</title>
<polygon fill="none" stroke="#000000" stroke-dasharray="1,5" points="1940,-70 1940,-138 2058,-138 2058,-70 1940,-70"/>
</g>
<g id="clust68" class="cluster">
<title>cluster_ProfilesPageModule_declarations</title>
<polygon fill="none" stroke="#000000" points="1948,-78 1948,-130 2050,-130 2050,-78 1948,-78"/>
</g>
<g id="clust74" class="cluster">
<title>cluster_QuizPageModule</title>
<polygon fill="none" stroke="#000000" stroke-dasharray="1,5" points="2088,-70 2088,-138 2190,-138 2190,-70 2088,-70"/>
</g>
<g id="clust75" class="cluster">
<title>cluster_QuizPageModule_declarations</title>
<polygon fill="none" stroke="#000000" points="2096,-78 2096,-130 2182,-130 2182,-78 2096,-78"/>
</g>
<!-- MyApp -->
<g id="node1" class="node">
<title>MyApp</title>
<polygon fill="#ffffb3" stroke="#000000" points="2623.5529,-198 2564.4471,-198 2564.4471,-162 2623.5529,-162 2623.5529,-198"/>
<text text-anchor="middle" x="2594" y="-175.8" font-family="Times,serif" font-size="14.00" fill="#000000">MyApp</text>
</g>
<!-- AppModule -->
<g id="node5" class="node">
<title>AppModule</title>
<polygon fill="#8dd3c7" stroke="#000000" points="1523.6571,-263 1520.6571,-267 1499.6571,-267 1496.6571,-263 1440.3429,-263 1440.3429,-227 1523.6571,-227 1523.6571,-263"/>
<text text-anchor="middle" x="1482" y="-240.8" font-family="Times,serif" font-size="14.00" fill="#000000">AppModule</text>
</g>
<!-- MyApp&#45;&gt;AppModule -->
<g id="edge1" class="edge">
<title>MyApp&#45;&gt;AppModule</title>
<path fill="none" stroke="#000000" d="M2594,-198.3228C2594,-221.6602 2594,-259 2594,-259 2594,-259 1533.8974,-259 1533.8974,-259"/>
<polygon fill="#000000" stroke="#000000" points="1533.8975,-255.5001 1523.8974,-259 1533.8974,-262.5001 1533.8975,-255.5001"/>
</g>
<!-- HomePage -->
<g id="node2" class="node">
<title>HomePage</title>
<polygon fill="#ffffb3" stroke="#000000" points="2546.9248,-198 2469.0752,-198 2469.0752,-162 2546.9248,-162 2546.9248,-198"/>
<text text-anchor="middle" x="2508" y="-175.8" font-family="Times,serif" font-size="14.00" fill="#000000">HomePage</text>
</g>
<!-- HomePage&#45;&gt;AppModule -->
<g id="edge2" class="edge">
<title>HomePage&#45;&gt;AppModule</title>
<path fill="none" stroke="#000000" d="M2508,-198.1554C2508,-220.3519 2508,-255 2508,-255 2508,-255 1533.8116,-255 1533.8116,-255"/>
<polygon fill="#000000" stroke="#000000" points="1533.8117,-251.5001 1523.8116,-255 1533.8116,-258.5001 1533.8117,-251.5001"/>
</g>
<!-- ProfileDetailsPage -->
<g id="node3" class="node">
<title>ProfileDetailsPage</title>
<polygon fill="#ffffb3" stroke="#000000" points="2451.4636,-198 2330.5364,-198 2330.5364,-162 2451.4636,-162 2451.4636,-198"/>
<text text-anchor="middle" x="2391" y="-175.8" font-family="Times,serif" font-size="14.00" fill="#000000">ProfileDetailsPage</text>
</g>
<!-- ProfileDetailsPage&#45;&gt;AppModule -->
<g id="edge3" class="edge">
<title>ProfileDetailsPage&#45;&gt;AppModule</title>
<path fill="none" stroke="#000000" d="M2391,-198.2843C2391,-219.3211 2391,-251 2391,-251 2391,-251 1533.7194,-251 1533.7194,-251"/>
<polygon fill="#000000" stroke="#000000" points="1533.7194,-247.5001 1523.7194,-251 1533.7194,-254.5001 1533.7194,-247.5001"/>
</g>
<!-- GlossaryPage -->
<g id="node4" class="node">
<title>GlossaryPage</title>
<polygon fill="#ffffb3" stroke="#000000" points="2312.4734,-198 2219.5266,-198 2219.5266,-162 2312.4734,-162 2312.4734,-198"/>
<text text-anchor="middle" x="2266" y="-175.8" font-family="Times,serif" font-size="14.00" fill="#000000">GlossaryPage</text>
</g>
<!-- GlossaryPage&#45;&gt;AppModule -->
<g id="edge4" class="edge">
<title>GlossaryPage&#45;&gt;AppModule</title>
<path fill="none" stroke="#000000" d="M2266,-198.308C2266,-218.1455 2266,-247 2266,-247 2266,-247 1533.8741,-247 1533.8741,-247"/>
<polygon fill="#000000" stroke="#000000" points="1533.8741,-243.5001 1523.8741,-247 1533.874,-250.5001 1533.8741,-243.5001"/>
</g>
<!-- IonicApp  -->
<g id="node16" class="node">
<title>IonicApp </title>
<polygon fill="#80b1d3" stroke="#000000" points="1518.3734,-328 1445.6266,-328 1445.6266,-292 1518.3734,-292 1518.3734,-328"/>
<text text-anchor="middle" x="1482" y="-305.8" font-family="Times,serif" font-size="14.00" fill="#000000">IonicApp </text>
</g>
<!-- AppModule&#45;&gt;IonicApp  -->
<g id="edge15" class="edge">
<title>AppModule&#45;&gt;IonicApp </title>
<path fill="none" stroke="#000000" stroke-dasharray="1,5" d="M1482,-263.1061C1482,-263.1061 1482,-281.991 1482,-281.991"/>
<polygon fill="#000000" stroke="#000000" points="1478.5001,-281.9909 1482,-291.991 1485.5001,-281.991 1478.5001,-281.9909"/>
</g>
<!-- CrystalsystemsPageModule -->
<g id="node6" class="node">
<title>CrystalsystemsPageModule</title>
<polygon fill="#8dd3c7" stroke="#000000" points="827.5294,-198 824.5294,-202 803.5294,-202 800.5294,-198 656.4706,-198 656.4706,-162 827.5294,-162 827.5294,-198"/>
<text text-anchor="middle" x="742" y="-175.8" font-family="Times,serif" font-size="14.00" fill="#000000">CrystalsystemsPageModule</text>
</g>
<!-- CrystalsystemsPageModule&#45;&gt;AppModule -->
<g id="edge5" class="edge">
<title>CrystalsystemsPageModule&#45;&gt;AppModule</title>
<path fill="none" stroke="#000000" d="M742,-198.2222C742,-216.8285 742,-243 742,-243 742,-243 1430.0941,-243 1430.0941,-243"/>
<polygon fill="#000000" stroke="#000000" points="1430.0942,-246.5001 1440.0941,-243 1430.0941,-239.5001 1430.0942,-246.5001"/>
</g>
<!-- GalleryPageModule -->
<g id="node7" class="node">
<title>GalleryPageModule</title>
<polygon fill="#8dd3c7" stroke="#000000" points="1133.2395,-198 1130.2395,-202 1109.2395,-202 1106.2395,-198 1004.7605,-198 1004.7605,-162 1133.2395,-162 1133.2395,-198"/>
<text text-anchor="middle" x="1069" y="-175.8" font-family="Times,serif" font-size="14.00" fill="#000000">GalleryPageModule</text>
</g>
<!-- GalleryPageModule&#45;&gt;AppModule -->
<g id="edge6" class="edge">
<title>GalleryPageModule&#45;&gt;AppModule</title>
<path fill="none" stroke="#000000" d="M1069,-198.0091C1069,-214.0494 1069,-235 1069,-235 1069,-235 1430.1265,-235 1430.1265,-235"/>
<polygon fill="#000000" stroke="#000000" points="1430.1266,-238.5001 1440.1265,-235 1430.1265,-231.5001 1430.1266,-238.5001"/>
</g>
<!-- GlossaryPopoverPageModule -->
<g id="node8" class="node">
<title>GlossaryPopoverPageModule</title>
<polygon fill="#8dd3c7" stroke="#000000" points="1334.6811,-198 1331.6811,-202 1310.6811,-202 1307.6811,-198 1151.3189,-198 1151.3189,-162 1334.6811,-162 1334.6811,-198"/>
<text text-anchor="middle" x="1243" y="-175.8" font-family="Times,serif" font-size="14.00" fill="#000000">GlossaryPopoverPageModule</text>
</g>
<!-- GlossaryPopoverPageModule&#45;&gt;AppModule -->
<g id="edge7" class="edge">
<title>GlossaryPopoverPageModule&#45;&gt;AppModule</title>
<path fill="none" stroke="#000000" d="M1243,-198.1243C1243,-212.7832 1243,-231 1243,-231 1243,-231 1430.0959,-231 1430.0959,-231"/>
<polygon fill="#000000" stroke="#000000" points="1430.0959,-234.5001 1440.0959,-231 1430.0959,-227.5001 1430.0959,-234.5001"/>
</g>
<!-- FeedbackPageModule -->
<g id="node9" class="node">
<title>FeedbackPageModule</title>
<polygon fill="#8dd3c7" stroke="#000000" points="986.4032,-198 983.4032,-202 962.4032,-202 959.4032,-198 845.5968,-198 845.5968,-162 986.4032,-162 986.4032,-198"/>
<text text-anchor="middle" x="916" y="-175.8" font-family="Times,serif" font-size="14.00" fill="#000000">FeedbackPageModule</text>
</g>
<!-- FeedbackPageModule&#45;&gt;AppModule -->
<g id="edge8" class="edge">
<title>FeedbackPageModule&#45;&gt;AppModule</title>
<path fill="none" stroke="#000000" d="M916,-198.0225C916,-215.3734 916,-239 916,-239 916,-239 1429.9204,-239 1429.9204,-239"/>
<polygon fill="#000000" stroke="#000000" points="1429.9205,-242.5001 1439.9204,-239 1429.9204,-235.5001 1429.9205,-242.5001"/>
</g>
<!-- HelperPageModule -->
<g id="node10" class="node">
<title>HelperPageModule</title>
<polygon fill="#8dd3c7" stroke="#000000" points="1477.3487,-198 1474.3487,-202 1453.3487,-202 1450.3487,-198 1352.6513,-198 1352.6513,-162 1477.3487,-162 1477.3487,-198"/>
<text text-anchor="middle" x="1415" y="-175.8" font-family="Times,serif" font-size="14.00" fill="#000000">HelperPageModule</text>
</g>
<!-- HelperPageModule&#45;&gt;AppModule -->
<g id="edge9" class="edge">
<title>HelperPageModule&#45;&gt;AppModule</title>
<path fill="none" stroke="#000000" d="M1458.798,-198.1061C1458.798,-198.1061 1458.798,-216.991 1458.798,-216.991"/>
<polygon fill="#000000" stroke="#000000" points="1455.2981,-216.9909 1458.798,-226.991 1462.2981,-216.991 1455.2981,-216.9909"/>
</g>
<!-- ProfilesPageModule -->
<g id="node11" class="node">
<title>ProfilesPageModule</title>
<polygon fill="#8dd3c7" stroke="#000000" points="2064.3062,-198 2061.3062,-202 2040.3062,-202 2037.3062,-198 1933.6938,-198 1933.6938,-162 2064.3062,-162 2064.3062,-198"/>
<text text-anchor="middle" x="1999" y="-175.8" font-family="Times,serif" font-size="14.00" fill="#000000">ProfilesPageModule</text>
</g>
<!-- ProfilesPageModule&#45;&gt;AppModule -->
<g id="edge10" class="edge">
<title>ProfilesPageModule&#45;&gt;AppModule</title>
<path fill="none" stroke="#000000" d="M1999,-198.0225C1999,-215.3734 1999,-239 1999,-239 1999,-239 1533.8703,-239 1533.8703,-239"/>
<polygon fill="#000000" stroke="#000000" points="1533.8704,-235.5001 1523.8703,-239 1533.8703,-242.5001 1533.8704,-235.5001"/>
</g>
<!-- Profiles1PageModule -->
<g id="node12" class="node">
<title>Profiles1PageModule</title>
<polygon fill="#8dd3c7" stroke="#000000" points="1760.8061,-198 1757.8061,-202 1736.8061,-202 1733.8061,-198 1623.1939,-198 1623.1939,-162 1760.8061,-162 1760.8061,-198"/>
<text text-anchor="middle" x="1692" y="-175.8" font-family="Times,serif" font-size="14.00" fill="#000000">Profiles1PageModule</text>
</g>
<!-- Profiles1PageModule&#45;&gt;AppModule -->
<g id="edge11" class="edge">
<title>Profiles1PageModule&#45;&gt;AppModule</title>
<path fill="none" stroke="#000000" d="M1692,-198.1243C1692,-212.7832 1692,-231 1692,-231 1692,-231 1533.7403,-231 1533.7403,-231"/>
<polygon fill="#000000" stroke="#000000" points="1533.7404,-227.5001 1523.7403,-231 1533.7403,-234.5001 1533.7404,-227.5001"/>
</g>
<!-- Profiles2PageModule -->
<g id="node13" class="node">
<title>Profiles2PageModule</title>
<polygon fill="#8dd3c7" stroke="#000000" points="1915.8061,-198 1912.8061,-202 1891.8061,-202 1888.8061,-198 1778.1939,-198 1778.1939,-162 1915.8061,-162 1915.8061,-198"/>
<text text-anchor="middle" x="1847" y="-175.8" font-family="Times,serif" font-size="14.00" fill="#000000">Profiles2PageModule</text>
</g>
<!-- Profiles2PageModule&#45;&gt;AppModule -->
<g id="edge12" class="edge">
<title>Profiles2PageModule&#45;&gt;AppModule</title>
<path fill="none" stroke="#000000" d="M1847,-198.0091C1847,-214.0494 1847,-235 1847,-235 1847,-235 1533.8701,-235 1533.8701,-235"/>
<polygon fill="#000000" stroke="#000000" points="1533.8702,-231.5001 1523.8701,-235 1533.8701,-238.5001 1533.8702,-231.5001"/>
</g>
<!-- QuizPageModule -->
<g id="node14" class="node">
<title>QuizPageModule</title>
<polygon fill="#8dd3c7" stroke="#000000" points="2195.9734,-198 2192.9734,-202 2171.9734,-202 2168.9734,-198 2082.0266,-198 2082.0266,-162 2195.9734,-162 2195.9734,-198"/>
<text text-anchor="middle" x="2139" y="-175.8" font-family="Times,serif" font-size="14.00" fill="#000000">QuizPageModule</text>
</g>
<!-- QuizPageModule&#45;&gt;AppModule -->
<g id="edge13" class="edge">
<title>QuizPageModule&#45;&gt;AppModule</title>
<path fill="none" stroke="#000000" d="M2139,-198.2222C2139,-216.8285 2139,-243 2139,-243 2139,-243 1533.8469,-243 1533.8469,-243"/>
<polygon fill="#000000" stroke="#000000" points="1533.8469,-239.5001 1523.8469,-243 1533.8469,-246.5001 1533.8469,-239.5001"/>
</g>
<!-- InfoPageModule -->
<g id="node15" class="node">
<title>InfoPageModule</title>
<polygon fill="#8dd3c7" stroke="#000000" points="1605.0828,-198 1602.0828,-202 1581.0828,-202 1578.0828,-198 1494.9172,-198 1494.9172,-162 1605.0828,-162 1605.0828,-198"/>
<text text-anchor="middle" x="1550" y="-175.8" font-family="Times,serif" font-size="14.00" fill="#000000">InfoPageModule</text>
</g>
<!-- InfoPageModule&#45;&gt;AppModule -->
<g id="edge14" class="edge">
<title>InfoPageModule&#45;&gt;AppModule</title>
<path fill="none" stroke="#000000" d="M1509.3934,-198.1061C1509.3934,-198.1061 1509.3934,-216.991 1509.3934,-216.991"/>
<polygon fill="#000000" stroke="#000000" points="1505.8935,-216.9909 1509.3934,-226.991 1512.8935,-216.991 1505.8935,-216.9909"/>
</g>
<!-- ProfilesService -->
<g id="node17" class="node">
<title>ProfilesService</title>
<ellipse fill="#fdb462" stroke="#000000" cx="562" cy="-180" rx="70.0558" ry="18"/>
<text text-anchor="middle" x="562" y="-175.8" font-family="Times,serif" font-size="14.00" fill="#000000">ProfilesService</text>
</g>
<!-- ProfilesService&#45;&gt;AppModule -->
<g id="edge16" class="edge">
<title>ProfilesService&#45;&gt;AppModule</title>
<path fill="none" stroke="#000000" d="M562,-198.308C562,-218.1455 562,-247 562,-247 562,-247 1430.0789,-247 1430.0789,-247"/>
<polygon fill="#000000" stroke="#000000" points="1430.0789,-250.5001 1440.0789,-247 1430.0788,-243.5001 1430.0789,-250.5001"/>
</g>
<!-- HelpersService -->
<g id="node18" class="node">
<title>HelpersService</title>
<ellipse fill="#fdb462" stroke="#000000" cx="404" cy="-180" rx="70.0384" ry="18"/>
<text text-anchor="middle" x="404" y="-175.8" font-family="Times,serif" font-size="14.00" fill="#000000">HelpersService</text>
</g>
<!-- HelpersService&#45;&gt;AppModule -->
<g id="edge17" class="edge">
<title>HelpersService&#45;&gt;AppModule</title>
<path fill="none" stroke="#000000" d="M404,-198.2843C404,-219.3211 404,-251 404,-251 404,-251 1430.072,-251 1430.072,-251"/>
<polygon fill="#000000" stroke="#000000" points="1430.072,-254.5001 1440.072,-251 1430.0719,-247.5001 1430.072,-254.5001"/>
</g>
<!-- GlossaryService -->
<g id="node19" class="node">
<title>GlossaryService</title>
<ellipse fill="#fdb462" stroke="#000000" cx="242" cy="-180" rx="74.1335" ry="18"/>
<text text-anchor="middle" x="242" y="-175.8" font-family="Times,serif" font-size="14.00" fill="#000000">GlossaryService</text>
</g>
<!-- GlossaryService&#45;&gt;AppModule -->
<g id="edge18" class="edge">
<title>GlossaryService&#45;&gt;AppModule</title>
<path fill="none" stroke="#000000" d="M242,-198.1554C242,-220.3519 242,-255 242,-255 242,-255 1430.0325,-255 1430.0325,-255"/>
<polygon fill="#000000" stroke="#000000" points="1430.0325,-258.5001 1440.0325,-255 1430.0324,-251.5001 1430.0325,-258.5001"/>
</g>
<!-- MenuService -->
<g id="node20" class="node">
<title>MenuService</title>
<ellipse fill="#fdb462" stroke="#000000" cx="87" cy="-180" rx="62.5392" ry="18"/>
<text text-anchor="middle" x="87" y="-175.8" font-family="Times,serif" font-size="14.00" fill="#000000">MenuService</text>
</g>
<!-- MenuService&#45;&gt;AppModule -->
<g id="edge19" class="edge">
<title>MenuService&#45;&gt;AppModule</title>
<path fill="none" stroke="#000000" d="M87,-198.3228C87,-221.6602 87,-259 87,-259 87,-259 1430.2504,-259 1430.2504,-259"/>
<polygon fill="#000000" stroke="#000000" points="1430.2505,-262.5001 1440.2504,-259 1430.2504,-255.5001 1430.2505,-262.5001"/>
</g>
<!-- CrystalsystemsPage -->
<g id="node21" class="node">
<title>CrystalsystemsPage</title>
<polygon fill="#ffffb3" stroke="#000000" points="805.979,-122 678.021,-122 678.021,-86 805.979,-86 805.979,-122"/>
<text text-anchor="middle" x="742" y="-99.8" font-family="Times,serif" font-size="14.00" fill="#000000">CrystalsystemsPage</text>
</g>
<!-- CrystalsystemsPage&#45;&gt;CrystalsystemsPageModule -->
<g id="edge20" class="edge">
<title>CrystalsystemsPage&#45;&gt;CrystalsystemsPageModule</title>
<path fill="none" stroke="#000000" d="M742,-122.0109C742,-122.0109 742,-151.855 742,-151.855"/>
<polygon fill="#000000" stroke="#000000" points="738.5001,-151.8549 742,-161.855 745.5001,-151.855 738.5001,-151.8549"/>
</g>
<!-- FeedbackPage -->
<g id="node22" class="node">
<title>FeedbackPage</title>
<polygon fill="#ffffb3" stroke="#000000" points="964.3529,-122 867.6471,-122 867.6471,-86 964.3529,-86 964.3529,-122"/>
<text text-anchor="middle" x="916" y="-99.8" font-family="Times,serif" font-size="14.00" fill="#000000">FeedbackPage</text>
</g>
<!-- FeedbackPage&#45;&gt;FeedbackPageModule -->
<g id="edge21" class="edge">
<title>FeedbackPage&#45;&gt;FeedbackPageModule</title>
<path fill="none" stroke="#000000" d="M916,-122.0109C916,-122.0109 916,-151.855 916,-151.855"/>
<polygon fill="#000000" stroke="#000000" points="912.5001,-151.8549 916,-161.855 919.5001,-151.855 912.5001,-151.8549"/>
</g>
<!-- GalleryPage -->
<g id="node23" class="node">
<title>GalleryPage</title>
<polygon fill="#ffffb3" stroke="#000000" points="1111.6896,-122 1026.3104,-122 1026.3104,-86 1111.6896,-86 1111.6896,-122"/>
<text text-anchor="middle" x="1069" y="-99.8" font-family="Times,serif" font-size="14.00" fill="#000000">GalleryPage</text>
</g>
<!-- GalleryPage&#45;&gt;GalleryPageModule -->
<g id="edge22" class="edge">
<title>GalleryPage&#45;&gt;GalleryPageModule</title>
<path fill="none" stroke="#000000" d="M1069,-122.0109C1069,-122.0109 1069,-151.855 1069,-151.855"/>
<polygon fill="#000000" stroke="#000000" points="1065.5001,-151.8549 1069,-161.855 1072.5001,-151.855 1065.5001,-151.8549"/>
</g>
<!-- GlossaryPopoverPage -->
<g id="node24" class="node">
<title>GlossaryPopoverPage</title>
<polygon fill="#ffffb3" stroke="#000000" points="1312.6317,-122 1173.3683,-122 1173.3683,-86 1312.6317,-86 1312.6317,-122"/>
<text text-anchor="middle" x="1243" y="-99.8" font-family="Times,serif" font-size="14.00" fill="#000000">GlossaryPopoverPage</text>
</g>
<!-- GlossaryPopoverPage&#45;&gt;GlossaryPopoverPageModule -->
<g id="edge23" class="edge">
<title>GlossaryPopoverPage&#45;&gt;GlossaryPopoverPageModule</title>
<path fill="none" stroke="#000000" d="M1243,-122.0109C1243,-122.0109 1243,-151.855 1243,-151.855"/>
<polygon fill="#000000" stroke="#000000" points="1239.5001,-151.8549 1243,-161.855 1246.5001,-151.855 1239.5001,-151.8549"/>
</g>
<!-- HelperPage -->
<g id="node25" class="node">
<title>HelperPage</title>
<polygon fill="#ffffb3" stroke="#000000" points="1455.7994,-122 1374.2006,-122 1374.2006,-86 1455.7994,-86 1455.7994,-122"/>
<text text-anchor="middle" x="1415" y="-99.8" font-family="Times,serif" font-size="14.00" fill="#000000">HelperPage</text>
</g>
<!-- HelperPage&#45;&gt;HelperPageModule -->
<g id="edge24" class="edge">
<title>HelperPage&#45;&gt;HelperPageModule</title>
<path fill="none" stroke="#000000" d="M1415,-122.0109C1415,-122.0109 1415,-151.855 1415,-151.855"/>
<polygon fill="#000000" stroke="#000000" points="1411.5001,-151.8549 1415,-161.855 1418.5001,-151.855 1411.5001,-151.8549"/>
</g>
<!-- InfoPage -->
<g id="node26" class="node">
<title>InfoPage</title>
<polygon fill="#ffffb3" stroke="#000000" points="1583.0346,-122 1516.9654,-122 1516.9654,-86 1583.0346,-86 1583.0346,-122"/>
<text text-anchor="middle" x="1550" y="-99.8" font-family="Times,serif" font-size="14.00" fill="#000000">InfoPage</text>
</g>
<!-- InfoPage&#45;&gt;InfoPageModule -->
<g id="edge25" class="edge">
<title>InfoPage&#45;&gt;InfoPageModule</title>
<path fill="none" stroke="#000000" d="M1550,-122.0109C1550,-122.0109 1550,-151.855 1550,-151.855"/>
<polygon fill="#000000" stroke="#000000" points="1546.5001,-151.8549 1550,-161.855 1553.5001,-151.855 1546.5001,-151.8549"/>
</g>
<!-- Profiles1Page -->
<g id="node27" class="node">
<title>Profiles1Page</title>
<polygon fill="#ffffb3" stroke="#000000" points="1738.7563,-122 1645.2437,-122 1645.2437,-86 1738.7563,-86 1738.7563,-122"/>
<text text-anchor="middle" x="1692" y="-99.8" font-family="Times,serif" font-size="14.00" fill="#000000">Profiles1Page</text>
</g>
<!-- Profiles1Page&#45;&gt;Profiles1PageModule -->
<g id="edge26" class="edge">
<title>Profiles1Page&#45;&gt;Profiles1PageModule</title>
<path fill="none" stroke="#000000" d="M1692,-122.0109C1692,-122.0109 1692,-151.855 1692,-151.855"/>
<polygon fill="#000000" stroke="#000000" points="1688.5001,-151.8549 1692,-161.855 1695.5001,-151.855 1688.5001,-151.8549"/>
</g>
<!-- Profiles2Page -->
<g id="node28" class="node">
<title>Profiles2Page</title>
<polygon fill="#ffffb3" stroke="#000000" points="1893.7563,-122 1800.2437,-122 1800.2437,-86 1893.7563,-86 1893.7563,-122"/>
<text text-anchor="middle" x="1847" y="-99.8" font-family="Times,serif" font-size="14.00" fill="#000000">Profiles2Page</text>
</g>
<!-- Profiles2Page&#45;&gt;Profiles2PageModule -->
<g id="edge27" class="edge">
<title>Profiles2Page&#45;&gt;Profiles2PageModule</title>
<path fill="none" stroke="#000000" d="M1847,-122.0109C1847,-122.0109 1847,-151.855 1847,-151.855"/>
<polygon fill="#000000" stroke="#000000" points="1843.5001,-151.8549 1847,-161.855 1850.5001,-151.855 1843.5001,-151.8549"/>
</g>
<!-- ProfilesPage -->
<g id="node29" class="node">
<title>ProfilesPage</title>
<polygon fill="#ffffb3" stroke="#000000" points="2042.2563,-122 1955.7437,-122 1955.7437,-86 2042.2563,-86 2042.2563,-122"/>
<text text-anchor="middle" x="1999" y="-99.8" font-family="Times,serif" font-size="14.00" fill="#000000">ProfilesPage</text>
</g>
<!-- ProfilesPage&#45;&gt;ProfilesPageModule -->
<g id="edge28" class="edge">
<title>ProfilesPage&#45;&gt;ProfilesPageModule</title>
<path fill="none" stroke="#000000" d="M1999,-122.0109C1999,-122.0109 1999,-151.855 1999,-151.855"/>
<polygon fill="#000000" stroke="#000000" points="1995.5001,-151.8549 1999,-161.855 2002.5001,-151.855 1995.5001,-151.8549"/>
</g>
<!-- QuizPage -->
<g id="node30" class="node">
<title>QuizPage</title>
<polygon fill="#ffffb3" stroke="#000000" points="2174.4249,-122 2103.5751,-122 2103.5751,-86 2174.4249,-86 2174.4249,-122"/>
<text text-anchor="middle" x="2139" y="-99.8" font-family="Times,serif" font-size="14.00" fill="#000000">QuizPage</text>
</g>
<!-- QuizPage&#45;&gt;QuizPageModule -->
<g id="edge29" class="edge">
<title>QuizPage&#45;&gt;QuizPageModule</title>
<path fill="none" stroke="#000000" d="M2139,-122.0109C2139,-122.0109 2139,-151.855 2139,-151.855"/>
<polygon fill="#000000" stroke="#000000" points="2135.5001,-151.8549 2139,-161.855 2142.5001,-151.855 2135.5001,-151.8549"/>
</g>
</g>
</svg>
