<?xml version="1.0" encoding="UTF-8" standalone="no"?>
<!DOCTYPE svg PUBLIC "-//W3C//DTD SVG 1.1//EN"
 "http://www.w3.org/Graphics/SVG/1.1/DTD/svg11.dtd">
<!-- Generated by graphviz version 2.40.1 (20161225.0304)
 -->
<!-- Title: dependencies Pages: 1 -->
<svg width="897pt" height="290pt"
 viewBox="0.00 0.00 897.00 290.00" xmlns="http://www.w3.org/2000/svg" xmlns:xlink="http://www.w3.org/1999/xlink">
<g id="graph0" class="graph" transform="scale(1 1) rotate(0) translate(4 286)">
<title>dependencies</title>
<polygon fill="#ffffff" stroke="transparent" points="-4,4 -4,-286 893,-286 893,4 -4,4"/>
<text text-anchor="start" x="423.5091" y="-42.4" font-family="sans-serif" font-weight="bold" font-size="14.00" fill="#000000">Legend</text>
<polygon fill="#ffffb3" stroke="transparent" points="210.5,-10 210.5,-30 230.5,-30 230.5,-10 210.5,-10"/>
<text text-anchor="start" x="234.129" y="-15.4" font-family="sans-serif" font-size="14.00" fill="#000000"> &#160;Declarations</text>
<polygon fill="#8dd3c7" stroke="transparent" points="323.5,-10 323.5,-30 343.5,-30 343.5,-10 323.5,-10"/>
<text text-anchor="start" x="347.2251" y="-15.4" font-family="sans-serif" font-size="14.00" fill="#000000"> &#160;Module</text>
<polygon fill="#80b1d3" stroke="transparent" points="409.5,-10 409.5,-30 429.5,-30 429.5,-10 409.5,-10"/>
<text text-anchor="start" x="433.2812" y="-15.4" font-family="sans-serif" font-size="14.00" fill="#000000"> &#160;Bootstrap</text>
<polygon fill="#fdb462" stroke="transparent" points="506.5,-10 506.5,-30 526.5,-30 526.5,-10 506.5,-10"/>
<text text-anchor="start" x="530.1732" y="-15.4" font-family="sans-serif" font-size="14.00" fill="#000000"> &#160;Providers</text>
<polygon fill="#fb8072" stroke="transparent" points="602.5,-10 602.5,-30 622.5,-30 622.5,-10 602.5,-10"/>
<text text-anchor="start" x="626.2258" y="-15.4" font-family="sans-serif" font-size="14.00" fill="#000000"> &#160;Exports</text>
<g id="clust1" class="cluster">
<title>cluster_AppModule</title>
<polygon fill="none" stroke="#000000" stroke-dasharray="1,5" points="8,-70 8,-274 537,-274 537,-70 8,-70"/>
</g>
<g id="clust3" class="cluster">
<title>cluster_AppModule_imports</title>
<polygon fill="none" stroke="#000000" points="16,-78 16,-130 529,-130 529,-78 16,-78"/>
</g>
<g id="clust5" class="cluster">
<title>cluster_AppModule_bootstrap</title>
<polygon fill="none" stroke="#000000" points="216,-214 216,-266 340,-266 340,-214 216,-214"/>
</g>
<g id="clust7" class="cluster">
<title>cluster_RoutingModule</title>
<polygon fill="none" stroke="#000000" stroke-dasharray="1,5" points="545,-138 545,-206 881,-206 881,-138 545,-138"/>
</g>
<g id="clust9" class="cluster">
<title>cluster_RoutingModule_imports</title>
<polygon fill="none" stroke="#000000" points="679,-146 679,-198 873,-198 873,-146 679,-146"/>
</g>
<g id="clust10" class="cluster">
<title>cluster_RoutingModule_exports</title>
<polygon fill="none" stroke="#000000" points="553,-146 553,-198 671,-198 671,-146 553,-146"/>
</g>
<!-- BrowserModule -->
<g id="node1" class="node">
<title>BrowserModule</title>
<polygon fill="#8dd3c7" stroke="#000000" points="398.4734,-122 395.4734,-126 374.4734,-126 371.4734,-122 291.5266,-122 291.5266,-86 398.4734,-86 398.4734,-122"/>
<text text-anchor="middle" x="345" y="-99.8" font-family="Times,serif" font-size="14.00" fill="#000000">BrowserModule</text>
</g>
<!-- AppModule -->
<g id="node5" class="node">
<title>AppModule</title>
<polygon fill="#8dd3c7" stroke="#000000" points="319.6571,-190 316.6571,-194 295.6571,-194 292.6571,-190 236.3429,-190 236.3429,-154 319.6571,-154 319.6571,-190"/>
<text text-anchor="middle" x="278" y="-167.8" font-family="Times,serif" font-size="14.00" fill="#000000">AppModule</text>
</g>
<!-- BrowserModule&#45;&gt;AppModule -->
<g id="edge1" class="edge">
<title>BrowserModule&#45;&gt;AppModule</title>
<path fill="none" stroke="#000000" d="M305.6708,-122.2228C305.6708,-122.2228 305.6708,-143.7269 305.6708,-143.7269"/>
<polygon fill="#000000" stroke="#000000" points="302.1708,-143.7269 305.6708,-153.7269 309.1708,-143.727 302.1708,-143.7269"/>
</g>
<!-- RoutingModule -->
<g id="node2" class="node">
<title>RoutingModule</title>
<polygon fill="#8dd3c7" stroke="#000000" points="521.1681,-122 518.1681,-126 497.1681,-126 494.1681,-122 416.8319,-122 416.8319,-86 521.1681,-86 521.1681,-122"/>
<text text-anchor="middle" x="469" y="-99.8" font-family="Times,serif" font-size="14.00" fill="#000000">RoutingModule</text>
</g>
<!-- RoutingModule&#45;&gt;AppModule -->
<g id="edge2" class="edge">
<title>RoutingModule&#45;&gt;AppModule</title>
<path fill="none" stroke="#000000" d="M469,-122.2228C469,-142.3652 469,-172 469,-172 469,-172 329.9158,-172 329.9158,-172"/>
<polygon fill="#000000" stroke="#000000" points="329.9158,-168.5001 319.9158,-172 329.9157,-175.5001 329.9158,-168.5001"/>
</g>
<!-- RouterModule  -->
<g id="node8" class="node">
<title>RouterModule </title>
<polygon fill="#fb8072" stroke="#000000" points="662.6523,-190 561.3477,-190 561.3477,-154 662.6523,-154 662.6523,-190"/>
<text text-anchor="middle" x="612" y="-167.8" font-family="Times,serif" font-size="14.00" fill="#000000">RouterModule </text>
</g>
<!-- RoutingModule&#45;&gt;RouterModule  -->
<g id="edge7" class="edge">
<title>RoutingModule&#45;&gt;RouterModule </title>
<path fill="none" stroke="#000000" stroke-dasharray="5,2" d="M521.4359,-110C562.2481,-110 612,-110 612,-110 612,-110 612,-143.7333 612,-143.7333"/>
<polygon fill="#000000" stroke="#000000" points="608.5001,-143.7333 612,-153.7333 615.5001,-143.7333 608.5001,-143.7333"/>
</g>
<!-- MaterialModule -->
<g id="node3" class="node">
<title>MaterialModule</title>
<polygon fill="#8dd3c7" stroke="#000000" points="130.4706,-122 127.4706,-126 106.4706,-126 103.4706,-122 23.5294,-122 23.5294,-86 130.4706,-86 130.4706,-122"/>
<text text-anchor="middle" x="77" y="-99.8" font-family="Times,serif" font-size="14.00" fill="#000000">MaterialModule</text>
</g>
<!-- MaterialModule&#45;&gt;AppModule -->
<g id="edge3" class="edge">
<title>MaterialModule&#45;&gt;AppModule</title>
<path fill="none" stroke="#000000" d="M77,-122.2228C77,-142.3652 77,-172 77,-172 77,-172 225.8638,-172 225.8638,-172"/>
<polygon fill="#000000" stroke="#000000" points="225.8638,-175.5001 235.8638,-172 225.8638,-168.5001 225.8638,-175.5001"/>
</g>
<!-- FlexLayoutModule -->
<g id="node4" class="node">
<title>FlexLayoutModule</title>
<polygon fill="#8dd3c7" stroke="#000000" points="273.0954,-122 270.0954,-126 249.0954,-126 246.0954,-122 148.9046,-122 148.9046,-86 273.0954,-86 273.0954,-122"/>
<text text-anchor="middle" x="211" y="-99.8" font-family="Times,serif" font-size="14.00" fill="#000000">FlexLayoutModule</text>
</g>
<!-- FlexLayoutModule&#45;&gt;AppModule -->
<g id="edge4" class="edge">
<title>FlexLayoutModule&#45;&gt;AppModule</title>
<path fill="none" stroke="#000000" d="M254.6098,-122.2228C254.6098,-122.2228 254.6098,-143.7269 254.6098,-143.7269"/>
<polygon fill="#000000" stroke="#000000" points="251.1098,-143.7269 254.6098,-153.7269 258.1098,-143.727 251.1098,-143.7269"/>
</g>
<!-- AppComponent  -->
<g id="node6" class="node">
<title>AppComponent </title>
<polygon fill="#80b1d3" stroke="#000000" points="332.439,-258 223.561,-258 223.561,-222 332.439,-222 332.439,-258"/>
<text text-anchor="middle" x="278" y="-235.8" font-family="Times,serif" font-size="14.00" fill="#000000">AppComponent </text>
</g>
<!-- AppModule&#45;&gt;AppComponent  -->
<g id="edge5" class="edge">
<title>AppModule&#45;&gt;AppComponent </title>
<path fill="none" stroke="#000000" stroke-dasharray="1,5" d="M278,-190.2228C278,-190.2228 278,-211.7269 278,-211.7269"/>
<polygon fill="#000000" stroke="#000000" points="274.5001,-211.7269 278,-221.7269 281.5001,-211.727 274.5001,-211.7269"/>
</g>
<!-- RouterModule.forRoot(args) -->
<g id="node7" class="node">
<title>RouterModule.forRoot(args)</title>
<polygon fill="#8dd3c7" stroke="#000000" points="864.8419,-190 861.8419,-194 840.8419,-194 837.8419,-190 687.1581,-190 687.1581,-154 864.8419,-154 864.8419,-190"/>
<text text-anchor="middle" x="776" y="-167.8" font-family="Times,serif" font-size="14.00" fill="#000000">RouterModule.forRoot(args)</text>
</g>
<!-- RouterModule.forRoot(args)&#45;&gt;RoutingModule -->
<g id="edge6" class="edge">
<title>RouterModule.forRoot(args)&#45;&gt;RoutingModule</title>
<path fill="none" stroke="#000000" d="M776,-153.7079C776,-131.7943 776,-98 776,-98 776,-98 531.4264,-98 531.4264,-98"/>
<polygon fill="#000000" stroke="#000000" points="531.4264,-94.5001 521.4264,-98 531.4263,-101.5001 531.4264,-94.5001"/>
</g>
</g>
</svg>
